<svg version="1.1" xmlns="http://www.w3.org/2000/svg" xmlns:xlink="http://www.w3.org/1999/xlink" preserveAspectRatio="xMidYMid meet" viewBox="853 141 125 135"><g data-item-type="text" data-item="Business" id="logo__item--business" class="logo__item">
                <g class="logo__item__inner" transform="translate(874.171875 274.21639228230106) scale(1 1) rotate(0 0 0)">
                    <text data-part-id="logo__item--business" dy="0" dominant-baseline="auto" alignment-baseline="auto" font-family="Montserrat" font-size="32px" fill="#D0D2D3" letter-spacing="0" font-weight="bold" font-style="normal" data-font-family="Montserrat" data-font-weight="bold" data-font-style="normal" data-ttf-url="/builder_assets/fontsttf/font-montserrat-bold-normal.ttf">Elren</text>
                </g>
            </g><g data-item-type="image" data-item="Image" data-logo-item="" id="logo__item--logo_0" class="logo__item">
    <g class="logo__item__inner" transform="translate(847.2544442697123 119.5) scale(1.3749134485767192 1.3749134485767192) rotate(0 0 0)">
        
<g>
	<path fill="#D0D2D3" d="M66.964,64.185C54.52,57.182,35.261,52.501,21.842,53.313C7.441,54.096,2.36,60.294,9.696,68.176   c1.655,1.614,3.699,3.257,6.069,4.857c-1.253,0.409-1.39,1.308-0.17,2.337c1.642,1.389,5.123,2.485,7.773,2.452   c0.245,0,0.463-0.015,0.674-0.034c4.666,2.261,9.993,4.244,15.783,5.674c-5.422-1.661-10.374-3.706-14.625-5.927   c1.083-0.436,1.165-1.294,0.007-2.274c-1.607-1.356-4.986-2.438-7.616-2.446c-8.079-6.056-10.429-12.357-2.916-15.511   c5.845-2.351,15.708-2.432,26.799-0.048c10.102,2.364,20.831,6.417,24.7,10.92c-1.853-0.701-2.159-1.56-4.033-2.309   c-2.493-1.403-6.492-3.202-11.021-4.762c-14.122-4.728-29.217-4.986-34.053-0.742c-3.495,3.542-0.286,8.869,8.242,13.882   c5.681,3.346,12.991,5.899,21.07,7.916c6.362,1.424,12.207,2.058,17.139,1.989c-0.395-0.879-0.503-1.894-0.245-2.828   c0.171-0.612,0.478-1.144,0.858-1.579c-0.477-0.259-0.946-0.525-1.377-0.805c-3.31,1.09-8.514,1.24-14.733,0.205   c-11.969-2.01-23.147-7.677-24.966-12.671c-1.812-4.986,6.383-7.295,18.392-5.408c13.624,2.132,28.529,12.555,32.296,16.887   c0.258-0.006,0.511-0.027,0.79-0.027c3.753-0.04-0.572-5.674,3.297-4.292C76.201,70.546,72.523,67.372,66.964,64.185z" data-part-id="logo__item--logo_0__0"></path>
	<radialGradient id="SVGID_1_" cx="88.3477" cy="62.6758" r="34.4795" gradientUnits="userSpaceOnUse">
		<stop offset="0" style="stop-color:#D0D2D3"></stop>
		<stop offset="1" style="stop-color:#58595B"></stop>
	</radialGradient>
	<path fill="url(#SVGID_1_)" d="M70.371,70.813c0-6.186,5.021-11.206,11.212-11.206c6.186,0,11.199,5.021,11.199,11.206   c0,6.192-5.014,11.205-11.199,11.205C75.392,82.018,70.371,77.005,70.371,70.813" data-part-id="logo__item--logo_0__1"></path>
	<radialGradient id="SVGID_2_" cx="71.0234" cy="33.6118" r="54.4703" gradientUnits="userSpaceOnUse">
		<stop offset="0" style="stop-color:#00ADEE"></stop>
		<stop offset="1" style="stop-color:#004071"></stop>
	</radialGradient>
	<path fill="url(#SVGID_2_)" d="M24.798,59.735c-0.511-3.419-0.626-6.907-0.34-10.319c2.18-16.676,15.77-29.537,32.521-30.845   c15.742-1.382,30.723,8.89,35.259,23.849c1.969,6.798,1.873,13.542-0.354,20.047c-2.426-3.003-6.146-4.924-10.301-4.924   c-0.313,0-0.605,0.027-0.912,0.047c1.498-9.169-3.359-18.515-12.282-22.323c-10.497-4.482-22.637,0.402-27.119,10.899   c-4.481,10.498,0.396,22.636,10.893,27.119c5.457,2.322,11.343,2.125,16.369-0.074c0.653,3.576,2.732,6.647,5.627,8.604   c-8.686,3.63-18.896,3.174-27.711-2.234c-6.212-4.422-10.9-9.939-12.78-17.078c-2.833-10.716,0.559-21.949,8.964-29.278   c10.79-8.774,26.949-7.868,36.274,2.357c2.937,3.379,4.979,7.227,5.893,10.238c1.063,1.628,0.3,3.419,1.403,4.945   c1.607-9.53-4.871-18.277-12.875-23.454c-9.019-5.259-19.911-5.327-29.346-0.552C31.679,33.19,26.085,46.445,27.081,59.307   c2.861,0.088,5.157,2.432,5.157,5.313c0,2.078-1.199,3.883-2.943,4.755c1.765,4.755,4.524,9.162,8.311,12.772   c-4.482-3.14-7.738-7.425-9.911-12.262c-0.251,0.026-0.518,0.055-0.783,0.055c-2.943,0-5.328-2.385-5.328-5.32   C21.583,62.433,22.905,60.547,24.798,59.735z" data-part-id="logo__item--logo_0__2"></path>
</g>

    </g>
</g></svg>